<?xml version="1.0" encoding="iso-8859-1"?>
<!-- Uploaded to: SVG Repo, www.svgrepo.com, Generator: SVG Repo Mixer Tools -->
<svg fill="#000000" height="600px" width="600px" version="1.1" id="Layer_1" xmlns="http://www.w3.org/2000/svg" xmlns:xlink="http://www.w3.org/1999/xlink" 
	 viewBox="0 0 512 512" xml:space="preserve">
<g>
	<g>
		<path d="M200.096,0l16.94,93.172h77.928L311.902,0H200.096z M264.441,56.6h-16.883l-3.641-20.029h24.165L264.441,56.6z"/>
	</g>
</g>
<g>
	<g>
		<path d="M377.905,36.571l-69.747,209.241l-13.854-124.689h-76.609l-13.853,124.688l-69.747-209.24L0,73.143V512h512V73.143
			L377.905,36.571z M36.571,475.429V101.076l73.769-20.119l131.49,394.472H36.571z M231.44,328.603l18.989-170.908h11.142
			l18.99,170.909L256,402.286L231.44,328.603z M475.429,219.429h-85.333V256h85.333v219.429h-205.26l131.49-394.472l73.769,20.119
			V219.429z"/>
	</g>
</g>
</svg>